<?xml version="1.0"?>


<svg version="1.0" id="Ebene_1" xmlns="http://www.w3.org/2000/svg" xmlns:xlink="http://www.w3.org/1999/xlink" x="0px" y="0px" width="533.574px" height="164.918px" viewBox="0 0 533.574 164.918" enable-background="new 0 0 533.574 164.918" xml:space="preserve">
<g>
&#x9;<polyline fill="none" stroke="#000000" stroke-width="1.7434" stroke-miterlimit="3.8637" points="8.576,157.345 8.576,8.811    57.988,8.811 57.988,112.275  "></polyline>
&#x9;<polygon fill="#009D6D" points="7.7,157.345 81.817,157.345 155.937,83.225 155.937,46.33 119.3,46.33 7.7,157.345  "></polygon>
&#x9;<polygon fill="none" stroke="#000000" stroke-width="1.7434" stroke-miterlimit="3.8637" points="0.872,0.872 164.046,0.872    164.046,164.046 0.872,164.046 0.872,0.872  "></polygon>
&#x9;<polygon points="259.56,95.722 270.242,117.589 270.242,133.175 277.476,133.175 277.476,116.632 288.32,95.722 284.398,95.722    275.558,113.08 267.073,95.722 259.56,95.722  "></polygon>
&#x9;<polygon points="352.753,95.722 352.753,98.939 340.054,98.939 340.054,110.986 352.394,110.986 352.394,114.199 340.054,114.199    340.054,129.843 353.109,129.843 353.109,133.175 332.8,133.175 332.8,95.722 352.753,95.722  "></polygon>
&#x9;<polygon points="399.972,95.722 425.167,95.722 425.167,99.027 416.062,99.027 416.062,133.175 409.167,133.175 409.167,99.207    399.972,99.207 399.972,95.722  "></polygon>
&#x9;<polygon points="433.109,95.722 440.425,95.722 440.425,110.986 454.464,110.986 454.464,95.722 461.605,95.722 461.605,133.175    454.554,133.175 454.554,114.582 440.339,114.582 440.339,133.175 433.109,133.175 433.109,95.722  "></polygon>
&#x9;<path d="M364.808,116.304c0.004,1.336,0.035,2.363,0.035,3.285c0,10.184,6.457,14.248,14.758,14.248   c9.422,0,13.523-5.201,13.523-17.77l0.027-20.346h-3.125v20.467c-0.121,8.705-1.527,13.941-8.289,13.941   c-5.887,0-9.152-1.887-9.559-12.865V95.722h-7.371V116.304L364.808,116.304z"></path>
&#x9;<path d="M420.41,51.79c0-2.37,0-1.191-0.016-3.412c-2.023-1.49-5.387-2.559-8.902-2.559c-5.813,0-11.949,4.182-11.949,11.672   c0,12.321,16.922,10.095,16.922,18.29c0,3.04-3.313,6.07-7.121,6.07c-3.957,0-9.973-3.476-9.973-3.476c0,3.184-0.012,1.161,0,3.815   c2.055,1.064,5.234,2.492,8.75,2.492c7.766,0,14.352-4.994,14.352-12.268c0-12.321-16.258-10.313-16.258-18.346   c0-2.605,2.102-5.709,5.082-5.706C416.406,48.369,420.41,51.79,420.41,51.79L420.41,51.79z"></path>
&#x9;<polygon points="259.385,46.381 262.648,46.381 262.648,83.991 259.144,83.991 238.139,57.669 238.139,83.991 234.755,83.991    234.755,46.381 238.311,46.381 259.385,71.857 259.385,46.381  "></polygon>
&#x9;<polygon points="278.042,46.381 285.171,46.381 285.171,83.991 278.042,83.991 278.042,46.381  "></polygon>
&#x9;<polygon points="293.921,46.381 302.261,46.381 311.253,73.669 320.726,46.381 324.351,46.381 311.011,83.991 307.265,83.991    293.921,46.381  "></polygon>
&#x9;<polygon points="352.753,46.381 352.753,49.597 340.054,49.597 340.054,61.645 352.394,61.645 352.394,64.859 340.054,64.859    340.054,80.501 353.109,80.501 353.109,83.991 332.8,83.991 332.8,46.381 352.753,46.381  "></polygon>
&#x9;<polygon points="433.109,46.381 440.238,46.381 440.238,83.991 433.109,83.991 433.109,46.381  "></polygon>
&#x9;<polygon points="448.746,46.381 473.937,46.381 473.937,49.686 464.832,49.686 464.832,83.991 457.937,83.991 457.937,49.865    448.746,49.865 448.746,46.381  "></polygon>
&#x9;<path d="M193.327,66.962c0.004,1.337,0.033,2.365,0.033,3.285c0,10.186,6.457,14.248,14.76,14.248   c9.419,0,13.523-5.201,13.523-17.77l0.024-20.345h-3.123v20.467c-0.123,8.705-1.527,13.941-8.289,13.941   c-5.887,0-9.153-1.887-9.559-12.865V46.381h-7.37V66.962L193.327,66.962z"></path>
&#x9;<polygon points="508.382,46.381 533.574,46.381 533.574,49.686 524.472,49.686 524.472,83.991 517.574,83.991 517.574,49.865    508.382,49.865 508.382,46.381  "></polygon>
&#x9;<path fill-rule="evenodd" clip-rule="evenodd" d="M382.722,56.804c0,5.081-1.801,7.751-8.785,7.74c-0.375,0-1.492,0.02-1.922-0.034   V49.237C380.14,49.177,382.722,50.425,382.722,56.804L382.722,56.804z M384.425,83.992l8.324-0.001   c-3.922-6.108-8.184-12.58-11.617-18.688c5.313-1.352,8.32-4.703,8.32-9.947c0-3.189-1.344-5.567-3.492-7.135   c-1.879-1.352-3.863-1.838-9.285-1.838l-11.867-0.001v37.609h7.207V66.399l2.242-0.001L384.425,83.992L384.425,83.992z"></path>
&#x9;<path fill-rule="evenodd" clip-rule="evenodd" d="M235.569,119.058h9.51c-1.414-4.387-3.078-9.76-4.638-13.984   C238.758,110.05,237.601,113.451,235.569,119.058L235.569,119.058z M244.37,95.722h-3.692l-13.757,37.453h3.505l4.252-11.492   h11.374l3.505,11.492h8.43L244.37,95.722L244.37,95.722z"></path>
&#x9;<path fill-rule="evenodd" clip-rule="evenodd" d="M314.046,105.988c0,5.082-1.805,7.752-8.785,7.74   c-0.375,0-1.492,0.021-1.922-0.033V98.421C311.46,98.363,314.046,99.609,314.046,105.988L314.046,105.988z M315.617,133.175h8.32   c-3.918-6.109-8.047-12.4-11.484-18.508c5.316-1.352,8.32-4.703,8.32-9.947c0-3.189-1.34-5.568-3.488-7.135   c-1.879-1.352-3.863-1.838-9.285-1.838h-11.867v37.428h7.207v-17.412h2.238L315.617,133.175L315.617,133.175z"></path>
&#x9;<path fill-rule="evenodd" clip-rule="evenodd" d="M200.569,114.742l4.036,0.002c4.505,0,7.652,2.916,7.652,7.963   c0,4.721-3.403,7.699-6.726,7.699l-4.963-0.008V114.742L200.569,114.742z M211.969,105.179c0,4.613-3.98,6.959-7.19,6.959h-4.189   V98.414h4.476C209.513,98.414,211.969,101.707,211.969,105.179L211.969,105.179z M193.327,95.722v37.453l14.013,0.004   c6.7,0,13.088-3.092,13.088-10.852c0-6.566-6.7-8.955-10.136-9.117c3.491-0.65,9.179-3.146,9.179-9.063   c0-5.914-3.596-8.467-11.374-8.41L193.327,95.722L193.327,95.722z"></path>
&#x9;<path stroke="#000000" stroke-width="0.9534" stroke-miterlimit="3.8637" d="M479.609,46.208c0-1.558,1.266-2.82,2.82-2.82   c1.559,0,2.82,1.263,2.82,2.82s-1.262,2.82-2.82,2.82C480.875,49.028,479.609,47.765,479.609,46.208L479.609,46.208z"></path>
&#x9;<path stroke="#000000" stroke-width="0.9534" stroke-miterlimit="3.8637" d="M497.218,46.208c0-1.558,1.266-2.82,2.82-2.82   c1.559,0,2.82,1.263,2.82,2.82s-1.262,2.82-2.82,2.82C498.484,49.028,497.218,47.765,497.218,46.208L497.218,46.208z"></path>
&#x9;<path fill-rule="evenodd" clip-rule="evenodd" d="M484.414,69.651h9.508c-1.414-4.388-3.078-9.761-4.637-13.985   C487.601,60.642,486.445,64.041,484.414,69.651L484.414,69.651z M493.214,46.314h-3.695l-13.754,37.453h3.504l4.25-11.492h11.375   l3.504,11.492h8.43L493.214,46.314L493.214,46.314z"></path>
</g>
</svg>